# xmcd CD database file
# Copyright (C) 1993-1998 Ti Kan
#
# Track frame offsets:
#  150
#  12290
#  26622
#  35362
#  44797
#  63280
#  87690
#  102565
#  113750
#  132075
#  143525
#  157407
#  170275
#  187512
#  198272
#  209857
#
# Disc length: 3007 seconds
#
# Revision: 1
# Processed by: cddbd v1.4b41PL1 Copyright (c) Steve Scherf et al.
# Submitted via: CDWizzard Release:4.35
#
DISCID=e20bbd10
DTITLE=Various Artist - Visions (4)
DYEAR=1900
DGENRE=
TTITLE0=Dallas
TTITLE1=Love Theme From The Godfather
TTITLE2=Major Yates Fancy
TTITLE3=Over The Rainbow
TTITLE4=Spy Ship (Main Theme)
TTITLE5=Theme From Rainman
TTITLE6=As Time Goes By
TTITLE7=The Winds Of War
TTITLE8=Up Where We Belong
TTITLE9=The Woman In You
TTITLE10=Reilly, Ace Of Spies
TTITLE11=Loving Walter
TTITLE12=The Way He Makes Me Feel
TTITLE13=The Jewel In The Crown
TTITLE14=What A Wonderful World
TTITLE15=Moonlight Serenade
EXTD=
EXTT0=
EXTT1=
EXTT2=
EXTT3=
EXTT4=
EXTT5=
EXTT6=
EXTT7=
EXTT8=
EXTT9=
EXTT10=
EXTT11=
EXTT12=
EXTT13=
EXTT14=
EXTT15=
PLAYORDER=
